# xmcd
#
# Track frame offsets:
# 150
# 20264
# 40558
# 58722
# 78602
# 101229
# 123856
# 143408
# 164823
# 184675
# 199802
# 218029
# 234306
# 252920
# 271310
#
# Disc length: 3987 seconds
#
#
# Revision: 1
# Processed by: cddbd v1.5PL3 Copyright (c) Steve Scherf et al.
# Submitted via: FreeRIP 2.35 
#
DISCID=cc0f910f
DTITLE=Kenny G - Reatest Hits
DYEAR=1900
DGENRE=Jazz
TTITLE0=My Heart Will Go Lone Theme From Titanic
TTITLE1=My Heart Will Go ON (Love Theme From Titanic)
TTITLE2=SongBird
TTITLE3=Slihouette
TTITLE4=Forever in Love
TTITLE5=Every I ciose my eyes (with Babyface)
TTITLE6=SentImentai
TTITLE7=The Monent
TTITLE8=How Could An Angel Break My Heart (with Toni Braxton)
TTITLE9=Loving You
TTITLE10=You send me (with Michael Bolton)
TTITLE11=Havana
TTITLE12=By the Time This Night Is Over (with Peabo Bryson)
TTITLE13=Boby G
TTITLE14=Don't make me wait for love
EXTD=
EXTT0=
EXTT1=
EXTT2=
EXTT3=
EXTT4=
EXTT5=
EXTT6=
EXTT7=
EXTT8=
EXTT9=
EXTT10=
EXTT11=
EXTT12=
EXTT13=
EXTT14=
PLAYORDER=
